<mxfile host="app.diagrams.net" modified="2022-03-15T09:27:08.789Z" agent="5.0 (Windows)" etag="a7WOiik0QvFtWHVaB1_R" version="17.1.2" type="github">
  <diagram id="XV7bMP4CpOrP1xkt1x5b" name="Page-1">
    <mxGraphModel dx="1422" dy="724" grid="1" gridSize="10" guides="1" tooltips="1" connect="1" arrows="1" fold="1" page="1" pageScale="1" pageWidth="827" pageHeight="1169" math="0" shadow="0">
      <root>
        <mxCell id="0" />
        <mxCell id="1" parent="0" />
        <mxCell id="lJapsdY23BsHBQdAk8ND-2" value="Front end" style="rounded=1;whiteSpace=wrap;html=1;" vertex="1" parent="1">
          <mxGeometry x="344" y="270" width="140" height="60" as="geometry" />
        </mxCell>
        <mxCell id="lJapsdY23BsHBQdAk8ND-3" value="Serveur de base de donnÃ©es" style="shape=datastore;whiteSpace=wrap;html=1;" vertex="1" parent="1">
          <mxGeometry x="190" y="110" width="100" height="90" as="geometry" />
        </mxCell>
        <mxCell id="lJapsdY23BsHBQdAk8ND-4" value="Serveur d&#39;application" style="shape=note;size=20;whiteSpace=wrap;html=1;" vertex="1" parent="1">
          <mxGeometry x="369" y="110" width="90" height="90" as="geometry" />
        </mxCell>
        <mxCell id="lJapsdY23BsHBQdAk8ND-5" value="" style="endArrow=classic;html=1;rounded=0;entryX=1;entryY=0.5;entryDx=0;entryDy=0;exitX=0;exitY=0.5;exitDx=0;exitDy=0;exitPerimeter=0;" edge="1" parent="1" source="lJapsdY23BsHBQdAk8ND-4" target="lJapsdY23BsHBQdAk8ND-3">
          <mxGeometry width="50" height="50" relative="1" as="geometry">
            <mxPoint x="390" y="370" as="sourcePoint" />
            <mxPoint x="440" y="320" as="targetPoint" />
          </mxGeometry>
        </mxCell>
        <mxCell id="lJapsdY23BsHBQdAk8ND-8" value="" style="endArrow=classic;html=1;rounded=0;entryX=0.5;entryY=0;entryDx=0;entryDy=0;exitX=0.5;exitY=1;exitDx=0;exitDy=0;exitPerimeter=0;" edge="1" parent="1" source="lJapsdY23BsHBQdAk8ND-4" target="lJapsdY23BsHBQdAk8ND-2">
          <mxGeometry width="50" height="50" relative="1" as="geometry">
            <mxPoint x="390" y="370" as="sourcePoint" />
            <mxPoint x="440" y="320" as="targetPoint" />
          </mxGeometry>
        </mxCell>
        <mxCell id="lJapsdY23BsHBQdAk8ND-9" value="" style="shape=actor;whiteSpace=wrap;html=1;" vertex="1" parent="1">
          <mxGeometry x="280" y="410" width="40" height="50" as="geometry" />
        </mxCell>
        <mxCell id="lJapsdY23BsHBQdAk8ND-10" value="" style="shape=actor;whiteSpace=wrap;html=1;" vertex="1" parent="1">
          <mxGeometry x="360" y="410" width="40" height="50" as="geometry" />
        </mxCell>
        <mxCell id="lJapsdY23BsHBQdAk8ND-11" value="" style="shape=actor;whiteSpace=wrap;html=1;" vertex="1" parent="1">
          <mxGeometry x="510" y="410" width="40" height="50" as="geometry" />
        </mxCell>
        <mxCell id="lJapsdY23BsHBQdAk8ND-12" value="" style="endArrow=classic;html=1;rounded=0;exitX=0.5;exitY=1;exitDx=0;exitDy=0;exitPerimeter=0;entryX=0.25;entryY=1;entryDx=0;entryDy=0;" edge="1" parent="1" target="lJapsdY23BsHBQdAk8ND-2">
          <mxGeometry width="50" height="50" relative="1" as="geometry">
            <mxPoint x="299.5" y="410" as="sourcePoint" />
            <mxPoint x="414" y="330" as="targetPoint" />
          </mxGeometry>
        </mxCell>
        <mxCell id="lJapsdY23BsHBQdAk8ND-13" value="" style="endArrow=classic;html=1;rounded=0;entryX=0.5;entryY=1;entryDx=0;entryDy=0;exitX=0.5;exitY=0;exitDx=0;exitDy=0;" edge="1" parent="1" source="lJapsdY23BsHBQdAk8ND-10" target="lJapsdY23BsHBQdAk8ND-2">
          <mxGeometry width="50" height="50" relative="1" as="geometry">
            <mxPoint x="309.5" y="420" as="sourcePoint" />
            <mxPoint x="416.02" y="341.98" as="targetPoint" />
          </mxGeometry>
        </mxCell>
        <mxCell id="lJapsdY23BsHBQdAk8ND-14" value="" style="endArrow=classic;html=1;rounded=0;entryX=0.75;entryY=1;entryDx=0;entryDy=0;exitX=0.5;exitY=0;exitDx=0;exitDy=0;" edge="1" parent="1" source="lJapsdY23BsHBQdAk8ND-11" target="lJapsdY23BsHBQdAk8ND-2">
          <mxGeometry width="50" height="50" relative="1" as="geometry">
            <mxPoint x="319.5" y="430" as="sourcePoint" />
            <mxPoint x="426.02" y="351.98" as="targetPoint" />
          </mxGeometry>
        </mxCell>
        <mxCell id="lJapsdY23BsHBQdAk8ND-15" value="Utilisateur 1" style="text;html=1;align=center;verticalAlign=middle;resizable=0;points=[];autosize=1;strokeColor=none;fillColor=none;" vertex="1" parent="1">
          <mxGeometry x="260" y="470" width="80" height="20" as="geometry" />
        </mxCell>
        <mxCell id="lJapsdY23BsHBQdAk8ND-16" value="Utilisateur 2" style="text;html=1;align=center;verticalAlign=middle;resizable=0;points=[];autosize=1;strokeColor=none;fillColor=none;" vertex="1" parent="1">
          <mxGeometry x="340" y="471" width="80" height="20" as="geometry" />
        </mxCell>
        <mxCell id="lJapsdY23BsHBQdAk8ND-17" value="Utilisateur N" style="text;html=1;align=center;verticalAlign=middle;resizable=0;points=[];autosize=1;strokeColor=none;fillColor=none;" vertex="1" parent="1">
          <mxGeometry x="490" y="470" width="80" height="20" as="geometry" />
        </mxCell>
      </root>
    </mxGraphModel>
  </diagram>
</mxfile>
